<mxfile host="app.diagrams.net" modified="2023-04-13T03:10:00.919Z" agent="Mozilla/5.0 (Macintosh; Intel Mac OS X 10_15_7) AppleWebKit/605.1.15 (KHTML, like Gecko) Version/16.4 Safari/605.1.15" etag="uRuJLQQyvw0wQVFylyiQ" version="21.1.7" type="github">
  <diagram id="C5RBs43oDa-KdzZeNtuy" name="Page-1">
    <mxGraphModel dx="838" dy="597" grid="1" gridSize="10" guides="1" tooltips="1" connect="1" arrows="1" fold="1" page="1" pageScale="1" pageWidth="827" pageHeight="1169" math="0" shadow="0">
      <root>
        <mxCell id="WIyWlLk6GJQsqaUBKTNV-0" />
        <mxCell id="WIyWlLk6GJQsqaUBKTNV-1" parent="WIyWlLk6GJQsqaUBKTNV-0" />
        <mxCell id="3mv8zWbGxLvad9xvJV-8-19" style="edgeStyle=orthogonalEdgeStyle;rounded=0;orthogonalLoop=1;jettySize=auto;html=1;exitX=1;exitY=0.5;exitDx=0;exitDy=0;" parent="WIyWlLk6GJQsqaUBKTNV-1" source="3mv8zWbGxLvad9xvJV-8-0" edge="1">
          <mxGeometry relative="1" as="geometry">
            <mxPoint x="480" y="170" as="targetPoint" />
          </mxGeometry>
        </mxCell>
        <mxCell id="3mv8zWbGxLvad9xvJV-8-0" value="Agent" style="swimlane;whiteSpace=wrap;html=1;startSize=23;fillColor=#fff2cc;strokeColor=#d6b656;" parent="WIyWlLk6GJQsqaUBKTNV-1" vertex="1">
          <mxGeometry x="190" y="80" width="140" height="120" as="geometry">
            <mxRectangle x="310" y="210" width="100" height="30" as="alternateBounds" />
          </mxGeometry>
        </mxCell>
        <mxCell id="3mv8zWbGxLvad9xvJV-8-4" value="number" style="text;html=1;align=center;verticalAlign=middle;resizable=0;points=[];autosize=1;strokeColor=none;fillColor=none;" parent="3mv8zWbGxLvad9xvJV-8-0" vertex="1">
          <mxGeometry x="35" y="60" width="60" height="30" as="geometry" />
        </mxCell>
        <mxCell id="3mv8zWbGxLvad9xvJV-8-5" value="name" style="text;html=1;align=center;verticalAlign=middle;resizable=0;points=[];autosize=1;strokeColor=none;fillColor=none;" parent="3mv8zWbGxLvad9xvJV-8-0" vertex="1">
          <mxGeometry x="35" y="30" width="50" height="30" as="geometry" />
        </mxCell>
        <mxCell id="3mv8zWbGxLvad9xvJV-8-27" style="edgeStyle=orthogonalEdgeStyle;rounded=0;orthogonalLoop=1;jettySize=auto;html=1;exitX=0.5;exitY=1;exitDx=0;exitDy=0;entryX=0.5;entryY=0;entryDx=0;entryDy=0;startArrow=diamondThin;startFill=0;sourcePerimeterSpacing=7;" parent="WIyWlLk6GJQsqaUBKTNV-1" source="3mv8zWbGxLvad9xvJV-8-1" target="3mv8zWbGxLvad9xvJV-8-11" edge="1">
          <mxGeometry relative="1" as="geometry">
            <Array as="points">
              <mxPoint x="550" y="265" />
              <mxPoint x="400" y="265" />
            </Array>
          </mxGeometry>
        </mxCell>
        <mxCell id="3mv8zWbGxLvad9xvJV-8-1" value="Reservation" style="swimlane;whiteSpace=wrap;html=1;fillColor=#fff2cc;strokeColor=#d6b656;" parent="WIyWlLk6GJQsqaUBKTNV-1" vertex="1">
          <mxGeometry x="480" y="110" width="140" height="120" as="geometry">
            <mxRectangle x="480" y="120" width="70" height="30" as="alternateBounds" />
          </mxGeometry>
        </mxCell>
        <mxCell id="3mv8zWbGxLvad9xvJV-8-6" value="code" style="text;html=1;align=center;verticalAlign=middle;resizable=0;points=[];autosize=1;strokeColor=none;fillColor=none;" parent="3mv8zWbGxLvad9xvJV-8-1" vertex="1">
          <mxGeometry x="45" y="30" width="50" height="30" as="geometry" />
        </mxCell>
        <mxCell id="3mv8zWbGxLvad9xvJV-8-9" value="date" style="text;html=1;align=center;verticalAlign=middle;resizable=0;points=[];autosize=1;strokeColor=none;fillColor=none;" parent="3mv8zWbGxLvad9xvJV-8-1" vertex="1">
          <mxGeometry x="45" y="60" width="50" height="30" as="geometry" />
        </mxCell>
        <mxCell id="3mv8zWbGxLvad9xvJV-8-13" value="price" style="text;html=1;align=center;verticalAlign=middle;resizable=0;points=[];autosize=1;strokeColor=none;fillColor=none;" parent="3mv8zWbGxLvad9xvJV-8-1" vertex="1">
          <mxGeometry x="45" y="80" width="50" height="30" as="geometry" />
        </mxCell>
        <mxCell id="3mv8zWbGxLvad9xvJV-8-25" style="edgeStyle=orthogonalEdgeStyle;rounded=0;orthogonalLoop=1;jettySize=auto;html=1;exitX=1;exitY=0.5;exitDx=0;exitDy=0;entryX=0.5;entryY=1;entryDx=0;entryDy=0;endArrow=block;endFill=0;" parent="WIyWlLk6GJQsqaUBKTNV-1" source="3mv8zWbGxLvad9xvJV-8-2" target="3mv8zWbGxLvad9xvJV-8-11" edge="1">
          <mxGeometry relative="1" as="geometry">
            <Array as="points">
              <mxPoint x="170" y="480" />
              <mxPoint x="400" y="480" />
            </Array>
          </mxGeometry>
        </mxCell>
        <mxCell id="3mv8zWbGxLvad9xvJV-8-2" value="Twin" style="swimlane;whiteSpace=wrap;html=1;fillColor=#fff2cc;strokeColor=#d6b656;" parent="WIyWlLk6GJQsqaUBKTNV-1" vertex="1">
          <mxGeometry x="30" y="440" width="140" height="120" as="geometry">
            <mxRectangle x="310" y="370" width="70" height="30" as="alternateBounds" />
          </mxGeometry>
        </mxCell>
        <mxCell id="3mv8zWbGxLvad9xvJV-8-17" value="price" style="text;html=1;align=center;verticalAlign=middle;resizable=0;points=[];autosize=1;strokeColor=none;fillColor=none;" parent="3mv8zWbGxLvad9xvJV-8-2" vertex="1">
          <mxGeometry x="45" y="40" width="50" height="30" as="geometry" />
        </mxCell>
        <mxCell id="2R_oaOz17dlDIktkUFPh-0" style="edgeStyle=orthogonalEdgeStyle;rounded=0;orthogonalLoop=1;jettySize=auto;html=1;exitX=1;exitY=0.5;exitDx=0;exitDy=0;endArrow=none;endFill=0;" edge="1" parent="WIyWlLk6GJQsqaUBKTNV-1" source="3mv8zWbGxLvad9xvJV-8-3">
          <mxGeometry relative="1" as="geometry">
            <mxPoint x="250" y="480" as="targetPoint" />
          </mxGeometry>
        </mxCell>
        <mxCell id="3mv8zWbGxLvad9xvJV-8-3" value="Double" style="swimlane;whiteSpace=wrap;html=1;fillColor=#fff2cc;strokeColor=#d6b656;" parent="WIyWlLk6GJQsqaUBKTNV-1" vertex="1">
          <mxGeometry x="20" y="300" width="140" height="120" as="geometry" />
        </mxCell>
        <mxCell id="3mv8zWbGxLvad9xvJV-8-11" value="Room" style="swimlane;whiteSpace=wrap;html=1;fillColor=#fff2cc;strokeColor=#d6b656;" parent="WIyWlLk6GJQsqaUBKTNV-1" vertex="1">
          <mxGeometry x="330" y="300" width="140" height="120" as="geometry" />
        </mxCell>
        <mxCell id="3mv8zWbGxLvad9xvJV-8-14" value="number" style="text;html=1;align=center;verticalAlign=middle;resizable=0;points=[];autosize=1;strokeColor=none;fillColor=none;" parent="3mv8zWbGxLvad9xvJV-8-11" vertex="1">
          <mxGeometry x="40" y="30" width="60" height="30" as="geometry" />
        </mxCell>
        <mxCell id="2R_oaOz17dlDIktkUFPh-10" value="hotel name&lt;br&gt;" style="text;html=1;align=center;verticalAlign=middle;resizable=0;points=[];autosize=1;strokeColor=none;fillColor=none;" vertex="1" parent="3mv8zWbGxLvad9xvJV-8-11">
          <mxGeometry x="30" y="60" width="80" height="30" as="geometry" />
        </mxCell>
        <mxCell id="3mv8zWbGxLvad9xvJV-8-20" value="1" style="text;html=1;align=center;verticalAlign=middle;resizable=0;points=[];autosize=1;strokeColor=none;fillColor=none;" parent="WIyWlLk6GJQsqaUBKTNV-1" vertex="1">
          <mxGeometry x="330" y="110" width="30" height="30" as="geometry" />
        </mxCell>
        <mxCell id="3mv8zWbGxLvad9xvJV-8-21" value="0...*" style="text;html=1;align=center;verticalAlign=middle;resizable=0;points=[];autosize=1;strokeColor=none;fillColor=none;" parent="WIyWlLk6GJQsqaUBKTNV-1" vertex="1">
          <mxGeometry x="430" y="140" width="40" height="30" as="geometry" />
        </mxCell>
        <mxCell id="3mv8zWbGxLvad9xvJV-8-22" value="" style="triangle;whiteSpace=wrap;html=1;fillColor=#333333;" parent="WIyWlLk6GJQsqaUBKTNV-1" vertex="1">
          <mxGeometry x="420" y="175" width="20" height="30" as="geometry" />
        </mxCell>
        <mxCell id="3mv8zWbGxLvad9xvJV-8-23" value="places" style="text;html=1;align=center;verticalAlign=middle;resizable=0;points=[];autosize=1;strokeColor=none;fillColor=none;" parent="WIyWlLk6GJQsqaUBKTNV-1" vertex="1">
          <mxGeometry x="360" y="175" width="60" height="30" as="geometry" />
        </mxCell>
        <mxCell id="3mv8zWbGxLvad9xvJV-8-29" value="price" style="text;html=1;align=center;verticalAlign=middle;resizable=0;points=[];autosize=1;strokeColor=none;fillColor=none;" parent="WIyWlLk6GJQsqaUBKTNV-1" vertex="1">
          <mxGeometry x="65" y="335" width="50" height="30" as="geometry" />
        </mxCell>
        <mxCell id="3mv8zWbGxLvad9xvJV-8-30" value="1" style="text;html=1;align=center;verticalAlign=middle;resizable=0;points=[];autosize=1;strokeColor=none;fillColor=none;" parent="WIyWlLk6GJQsqaUBKTNV-1" vertex="1">
          <mxGeometry x="510" y="230" width="30" height="30" as="geometry" />
        </mxCell>
        <mxCell id="3mv8zWbGxLvad9xvJV-8-31" value="1...*" style="text;html=1;align=center;verticalAlign=middle;resizable=0;points=[];autosize=1;strokeColor=none;fillColor=none;" parent="WIyWlLk6GJQsqaUBKTNV-1" vertex="1">
          <mxGeometry x="350" y="260" width="40" height="30" as="geometry" />
        </mxCell>
        <mxCell id="2R_oaOz17dlDIktkUFPh-3" style="edgeStyle=orthogonalEdgeStyle;rounded=0;orthogonalLoop=1;jettySize=auto;html=1;exitX=1;exitY=0.5;exitDx=0;exitDy=0;endArrow=none;endFill=0;" edge="1" parent="WIyWlLk6GJQsqaUBKTNV-1" source="2R_oaOz17dlDIktkUFPh-1">
          <mxGeometry relative="1" as="geometry">
            <mxPoint x="190" y="360" as="targetPoint" />
          </mxGeometry>
        </mxCell>
        <mxCell id="2R_oaOz17dlDIktkUFPh-1" value="Studio" style="swimlane;whiteSpace=wrap;html=1;fillColor=#fff2cc;strokeColor=#d6b656;" vertex="1" parent="WIyWlLk6GJQsqaUBKTNV-1">
          <mxGeometry x="20" y="160" width="140" height="120" as="geometry" />
        </mxCell>
        <mxCell id="2R_oaOz17dlDIktkUFPh-2" value="price" style="text;html=1;align=center;verticalAlign=middle;resizable=0;points=[];autosize=1;strokeColor=none;fillColor=none;" vertex="1" parent="2R_oaOz17dlDIktkUFPh-1">
          <mxGeometry x="45" y="45" width="50" height="30" as="geometry" />
        </mxCell>
        <mxCell id="2R_oaOz17dlDIktkUFPh-4" value="Flight" style="swimlane;whiteSpace=wrap;html=1;fillColor=#fff2cc;strokeColor=#d6b656;" vertex="1" parent="WIyWlLk6GJQsqaUBKTNV-1">
          <mxGeometry x="560" y="300" width="140" height="70" as="geometry">
            <mxRectangle x="480" y="120" width="70" height="30" as="alternateBounds" />
          </mxGeometry>
        </mxCell>
        <mxCell id="2R_oaOz17dlDIktkUFPh-5" value="flight number" style="text;html=1;align=center;verticalAlign=middle;resizable=0;points=[];autosize=1;strokeColor=none;fillColor=none;" vertex="1" parent="2R_oaOz17dlDIktkUFPh-4">
          <mxGeometry x="25" y="20" width="90" height="30" as="geometry" />
        </mxCell>
        <mxCell id="2R_oaOz17dlDIktkUFPh-6" value="flight class" style="text;html=1;align=center;verticalAlign=middle;resizable=0;points=[];autosize=1;strokeColor=none;fillColor=none;" vertex="1" parent="2R_oaOz17dlDIktkUFPh-4">
          <mxGeometry x="30" y="40" width="80" height="30" as="geometry" />
        </mxCell>
      </root>
    </mxGraphModel>
  </diagram>
</mxfile>
